<svg xmlns="http://www.w3.org/2000/svg" width="55" height="55" viewBox="0 0 55 55"><path fill="#fff" d="M26.787 24.98c-3.438-.223-6.713-2.073-8.62-5.25-3.083-5.143-1.414-11.81 3.728-14.894.944-.567 2.233-.814 3.343-.987l.05-1.01c-2.277-.137-4.448 1.052-6.65 2.115-5.733 2.768-8.42 10.385-7.316 16.357-5.858 1.6-10.164 6.962-10.164 13.328 0 2.445-.127 4.916.987 6.908l1.06-.388c-.304-1-.468-2.064-.468-3.165 0-5.995 4.86-10.855 10.856-10.855 3.706 0 6.978 1.857 8.937 4.692l1.857-.794s-.814-3.405 2.442-4.293l-.043-1.765zM28.106 25.08c3.437-.256 6.695-2.138 8.57-5.334C39.71 14.576 37.98 7.924 32.81 4.89c-.95-.558-2.242-.794-3.354-.956l-.06-1.008c2.277-.158 4.46 1.01 6.67 2.052 5.76 2.713 8.52 10.305 7.47 16.287 5.874 1.546 10.23 6.866 10.29 13.232.024 2.444.174 4.914-.922 6.916l-1.064-.378c.296-1.004.45-2.068.44-3.168-.057-5.995-4.964-10.81-10.957-10.753-3.708.035-6.96 1.923-8.895 4.776l-1.863-.776s.782-3.412-2.484-4.27l.026-1.765zM23.37 33.014c1.55 3.078 1.618 6.84-.155 10.094-2.867 5.263-9.46 7.207-14.725 4.34-.967-.526-1.835-1.513-2.547-2.382l-.894.47c1.036 2.03 3.16 3.3 5.193 4.658 5.293 3.538 13.222 1.992 17.81-1.99 4.35 4.238 11.152 5.23 16.64 2.002 2.108-1.24 4.302-2.384 5.453-4.356l-.872-.717c-.71.772-1.54 1.45-2.49 2.01-5.168 3.04-11.82 1.315-14.86-3.85-1.882-3.196-1.94-6.957-.49-10.084l-1.626-1.198s-2.52 2.428-4.94.07l-1.498.932zM12.958 28.723c-.037.42-.056.848-.056 1.28 0 5.99 3.732 11.107 8.998 13.156l1.266-3.98c-3.996-1.555-6.02-4.42-6.02-8.966 0-.326.013-.65.042-.97l-4.23-.52zM35.658 18.163c-.347-.242-.708-.47-1.08-.685-5.198-2.98-11.495-2.288-15.89 1.26l2.82 3.08c3.337-2.694 6.83-3.025 10.773-.765.286.163.56.337.82.52l2.558-3.41zM33.398 42.993c.393-.157.782-.333 1.167-.527 5.344-2.706 8.225-8.347 7.675-13.97l-4.123.666c.42 4.267-1.223 7.37-5.278 9.422-.293.148-.59.28-.885.4l1.443 4.01z"/></svg>