<?xml version="1.0" encoding="utf-8"?>
<!-- Generator: Adobe Illustrator 18.0.0, SVG Export Plug-In . SVG Version: 6.00 Build 0)  -->
<!DOCTYPE svg PUBLIC "-//W3C//DTD SVG 1.1//EN" "http://www.w3.org/Graphics/SVG/1.1/DTD/svg11.dtd">
<svg version="1.1" id="Layer_1" xmlns="http://www.w3.org/2000/svg" xmlns:xlink="http://www.w3.org/1999/xlink" x="0px" y="0px"
	 viewBox="0 0 100 100" enable-background="new 0 0 100 100" xml:space="preserve">
<g>
	<g>
		<path fill="#FFC20E" d="M70,80c0,4.3-3.5,7.7-7.7,7.7H19.7c-4.3,0-7.7-3.5-7.7-7.7V37.4c0-4.3,3.5-7.7,7.7-7.7h12.7L44.1,18
			l-0.2-0.2H19.7C8.8,17.7,0,26.6,0,37.4V80c0,10.8,8.8,19.7,19.7,19.7h42.6C73.1,99.7,82,90.9,82,80V56.9L70,68.8V80z"/>
		<path fill="#FFC20E" d="M97.7,0.3H45.5c-2.1,0-3.1,2.5-1.6,4l13.5,13.5l0.2,0.2L45.9,29.7L34,41.6c-3,3-3,7.9,0,11l13.9,13.9
			c1.5,1.5,3.5,2.3,5.5,2.3c2,0,4-0.8,5.5-2.3L70,55.3L82,43.4l0.5-0.5L96,56.4c0.3,0.3,0.7,0.5,1.1,0.6c0.1,0,0.2,0,0.3,0.1
			c0.4,0,0.8,0,1.1-0.1c0,0,0,0,0.1,0c0.3-0.1,0.6-0.4,0.8-0.7c0.1-0.1,0.1-0.2,0.2-0.2c0.2-0.3,0.4-0.7,0.4-1.2V2.6
			C100,1.3,99,0.3,97.7,0.3z"/>
	</g>
</g>
</svg>
