<?xml version="1.0" encoding="utf-8"?><!DOCTYPE svg PUBLIC "-//W3C//DTD SVG 1.1//EN" "http://www.w3.org/Graphics/SVG/1.1/DTD/svg11.dtd"><svg version="1.1" id="hazard" xmlns="http://www.w3.org/2000/svg" xmlns:xlink="http://www.w3.org/1999/xlink" x="0px" y="0px" width="55px" height="55px" viewBox="0 0 55 55" enable-background="new 0 0 55 55" xml:space="preserve"><path fill="#FFFFFF" d="M26.78716,24.98004c-3.43773-0.22257-6.71354-2.07301-8.61945-5.25106 c-3.08376-5.14182-1.41494-11.80971,3.72688-14.89293c0.94432-0.56668,2.23318-0.8141,3.34339-0.98707L25.28777,2.84 c-2.27718-0.1365-4.44793,1.05233-6.64997,2.11465c-5.73277,2.76803-8.42045,10.3854-7.31601,16.35698 C5.46355,22.91338,1.15788,28.27432,1.15788,34.64035c0,2.44425-0.12661,4.91571,0.98707,6.90772l1.0605-0.38854 c-0.30471-1.00097-0.46837-2.06323-0.46837-3.16413c0-5.9954,4.86015-10.85554,10.85555-10.85554 c3.70601,0,6.97829,1.85734,8.93744,4.69191l1.85674-0.79389c0,0-0.81421-3.4048,2.44258-4.29302L26.78716,24.98004z"/><path fill="#FFFFFF" d="M28.10615,25.07896c3.43714-0.255,6.69495-2.1367,8.57079-5.33266 c3.03352-5.17022,1.30225-11.82235-3.86731-14.85641c-0.94943-0.55749-2.24137-0.79339-3.35377-0.95594L29.3968,2.92558 c2.27601-0.15792,4.45832,1.01021,6.66956,2.05215c5.75938,2.71376,8.51871,10.30564,7.47107,16.28706 c5.87267,1.54624,10.22803,6.8662,10.28924,13.23218c0.02324,2.44424,0.17362,4.91452-0.92274,6.91643l-1.06411-0.37822 c0.29604-1.00385,0.44998-2.06773,0.43964-3.1682c-0.05679-5.99529-4.96379-10.80924-10.95682-10.75265 c-3.70768,0.03474-6.96097,1.92279-8.89457,4.77522l-1.86325-0.77538c0,0,0.78183-3.41228-2.48356-4.27039L28.10615,25.07896z"/><path fill="#FFFFFF" d="M23.36972,33.01419c1.55135,3.07752,1.61853,6.83855-0.15447,10.09346 c-2.86755,5.26326-9.46073,7.20731-14.72571,4.34095c-0.96627-0.52678-1.83421-1.51321-2.5466-2.38239l-0.89403,0.46901 c1.03689,2.03193,3.16251,3.30063,5.19447,4.65893c5.2927,3.53771,13.2217,1.99158,17.8084-1.98976 c4.35069,4.23801,11.1533,5.22906,16.64215,2.00127c2.10712-1.23977,4.30104-2.38412,5.45163-4.35537l-0.87197-0.71706 c-0.70889,0.77139-1.54042,1.45082-2.48877,2.00954c-5.16839,3.04095-11.8217,1.31486-14.86103-3.85009 c-1.88165-3.19531-1.93941-6.95689-0.49043-10.08346l-1.62487-1.19759c0,0-2.5211,2.42864-4.93937,0.07164L23.36972,33.01419z"/><path fill="#FFFFFF" d="M12.95828,28.72311c-0.0376,0.42097-0.05668,0.84766-0.05668,1.27843 c0,5.99024,3.73204,11.10893,8.99816,13.15764l1.26579-3.97963c-3.99564-1.5543-6.02079-4.42012-6.02079-8.96523 c0-0.32665,0.01446-0.65043,0.04282-0.96971L12.95828,28.72311z"/><path fill="#FFFFFF" d="M35.65812,18.16306c-0.34703-0.2423-0.70781-0.47074-1.08131-0.68523 c-5.19679-2.97914-11.49339-2.28751-15.88979,1.26117l2.82187,3.07919c3.3365-2.69467,6.82973-3.02551,10.77224-0.76499 c0.28452,0.16249,0.55744,0.33654,0.82001,0.5192L35.65812,18.16306z"/><path fill="#FFFFFF" d="M33.39836,42.99319c0.39306-0.15673,0.78173-0.33315,1.16683-0.52742 c5.34427-2.70554,8.22504-8.34702,7.67459-13.96996l-4.1229,0.66619c0.41975,4.26743-1.22244,7.36861-5.27832,9.42205 c-0.29152,0.14801-0.58756,0.28044-0.8836,0.39952L33.39836,42.99319z"/></svg>
